Coordinates
version=1
nRows=5
nColumns=40
inDegrees=yes

Units are S.I. units (second, meters, Newtons, ...)
If the header above contains a line with 'inDegrees', this indicates whether rotational values are in degrees (yes) or radians (no).

endheader
time	pelvis_tilt	pelvis_list	pelvis_rotation	pelvis_tx	pelvis_ty	pelvis_tz	hip_flexion_r	hip_adduction_r	hip_rotation_r	knee_angle_r	knee_angle_r_beta	ankle_angle_r	subtalar_angle_r	mtp_angle_r	hip_flexion_l	hip_adduction_l	hip_rotation_l	knee_angle_l	knee_angle_l_beta	ankle_angle_l	subtalar_angle_l	mtp_angle_l	lumbar_extension	lumbar_bending	lumbar_rotation	arm_flex_r	arm_add_r	arm_rot_r	elbow_flex_r	pro_sup_r	wrist_flex_r	wrist_dev_r	arm_flex_l	arm_add_l	arm_rot_l	elbow_flex_l	pro_sup_l	wrist_flex_l	wrist_dev_l
      2.32500000	    -29.26806343	     -1.75958675	     -5.70589694	     -0.43496123	      0.67692812	     -0.89475807	     87.40283359	     -8.23504489	      1.67866622	     92.98760903	      1.62293994	     33.77234924	      0.00000000	      0.00000000	     89.31315156	    -21.50420215	      8.62565689	     94.38962212	      1.64740969	     34.40093594	      0.00000000	      0.00000000	    -19.88226172	      1.57231398	      4.58876040	      6.45678828	    -53.25691960	     72.75721149	     89.48963222	     85.88068637	      0.00000000	      0.00000000	    -12.26226820	    -50.83699743	     45.48246625	     98.97824543	     87.77097372	      0.00000000	      0.00000000
      2.33000000	    -29.34971442	     -1.84123546	     -5.70201565	     -0.43517756	      0.67694381	     -0.89485289	     87.45279568	     -8.19874981	      1.63313878	     92.94465254	      1.62219021	     33.68002269	      0.00000000	      0.00000000	     89.44860329	    -21.46930715	      8.75223391	     94.38098459	      1.64725893	     34.29939887	      0.00000000	      0.00000000	    -19.90660857	      1.65108008	      4.82218303	      5.76699297	    -53.31709761	     71.98794530	     89.61996212	     85.28115875	      0.00000000	      0.00000000	    -11.81182692	    -50.91548117	     45.93101789	     99.01215125	     87.83844720	      0.00000000	      0.00000000
      2.33500000	    -29.41404925	     -1.83731566	     -5.73531044	     -0.43532886	      0.67704556	     -0.89491418	     87.51087187	     -8.15636869	      1.64131716	     92.89191977	      1.62126985	     33.70135417	      0.00000000	      0.00000000	     89.48592253	    -21.43426038	      8.79728474	     94.32878338	      1.64634785	     34.37861419	      0.00000000	      0.00000000	    -19.89682922	      1.65299123	      4.53690069	      6.74870536	    -53.27274675	     73.03686851	     89.50004027	     86.55933451	      0.00000000	      0.00000000	    -12.42117880	    -50.81569566	     45.39795882	     98.95787319	     87.57836343	      0.00000000	      0.00000000
      2.34000000	    -29.42752086	     -1.94522408	     -5.72757964	     -0.43541541	      0.67730465	     -0.89500228	     87.44206800	     -8.14518643	      1.52307062	     92.81967721	      1.62000898	     33.73927251	      0.00000000	      0.00000000	     89.50812737	    -21.41114640	      8.91294918	     94.28242468	      1.64553874	     34.47262090	      0.00000000	      0.00000000	    -19.98806427	      1.75820554	      4.92989058	      5.63776509	    -53.36215168	     71.78522864	     89.58793750	     85.62899893	      0.00000000	      0.00000000	    -11.53852892	    -50.89903998	     46.26123388	     98.87390369	     87.78622002	      0.00000000	      0.00000000
      2.34500000	    -29.52635142	     -1.94148955	     -5.69438772	     -0.43561596	      0.67741411	     -0.89511799	     87.54109712	     -8.19254657	      1.50051228	     92.77538793	      1.61923598	     33.65563768	      0.00000000	      0.00000000	     89.60265318	    -21.31951524	      8.95733304	     94.20603864	      1.64420555	     34.36064632	      0.00000000	      0.00000000	    -19.94070017	      1.75856767	      4.93978644	      5.56585219	    -53.34206793	     71.69834656	     89.58623274	     86.69796119	      0.00000000	      0.00000000	    -11.39604332	    -50.92981690	     46.47473032	     98.81913011	     87.55705646	      0.00000000	      0.00000000
